<?xml version="1.0" standalone="no"?><!DOCTYPE svg PUBLIC "-//W3C//DTD SVG 1.1//EN" "http://www.w3.org/Graphics/SVG/1.1/DTD/svg11.dtd"><svg t="1710383929535" class="icon" viewBox="0 0 1024 1024" version="1.1" xmlns="http://www.w3.org/2000/svg" p-id="2820" xmlns:xlink="http://www.w3.org/1999/xlink" width="200" height="200"><path d="M1024 604.16h-60.14976v61.35808H1024v-61.37856z" fill="#000000" p-id="2821"></path><path d="M1024 542.57664h-60.14976V604.16H1024v-61.56288zM1024 358.2976h-60.14976V419.84H1024v-61.56288z" fill="#000000" p-id="2822"></path><path d="M1024 296.91904h-60.14976v61.37856H1024v-61.37856zM963.85024 665.51808h-60.35456v61.56288h60.35456v-61.56288z" fill="#000000" p-id="2823"></path><path d="M963.85024 604.16h-60.35456v61.35808h60.35456v-61.37856z" fill="#57A4FF" p-id="2824"></path><path d="M963.85024 542.57664h-60.35456V604.16h60.35456v-61.56288z" fill="#57A4FF" p-id="2825"></path><path d="M963.85024 481.21856h-60.35456v61.35808h60.35456v-61.35808zM963.85024 419.86048h-60.35456v61.35808h60.35456v-61.35808z" fill="#000000" p-id="2826"></path><path d="M963.85024 358.2976h-60.35456V419.84h60.35456v-61.56288z" fill="#57A4FF" p-id="2827"></path><path d="M963.85024 296.91904h-60.35456v61.37856h60.35456v-61.37856z" fill="#57A4FF" p-id="2828"></path><path d="M963.85024 235.35616h-60.35456v61.56288h60.35456v-61.56288zM903.49568 665.51808h-60.17024v61.56288h60.17024v-61.56288z" fill="#000000" p-id="2829"></path><path d="M903.49568 604.16h-60.17024v61.35808h60.17024v-61.37856z" fill="#57A4FF" p-id="2830"></path><path d="M903.49568 542.57664h-60.17024V604.16h60.17024v-61.56288zM903.49568 481.21856h-60.17024v61.35808h60.17024v-61.35808zM903.49568 419.86048h-60.17024v61.35808h60.17024v-61.35808zM903.49568 358.2976h-60.17024V419.84h60.17024v-61.56288z" fill="#57A4FF" p-id="2831"></path><path d="M903.49568 296.91904h-60.17024v61.37856h60.17024v-61.37856z" fill="#57A4FF" p-id="2832"></path><path d="M903.49568 235.35616h-60.17024v61.56288h60.17024v-61.56288zM843.34592 665.51808h-60.35456v61.56288h60.35456v-61.56288z" fill="#000000" p-id="2833"></path><path d="M843.34592 604.16h-60.35456v61.35808h60.35456v-61.37856z" fill="#57A4FF" p-id="2834"></path><path d="M843.34592 542.57664h-60.35456V604.16h60.35456v-61.56288zM843.34592 481.21856h-60.35456v61.35808h60.35456v-61.35808zM843.34592 419.86048h-60.35456v61.35808h60.35456v-61.35808zM843.34592 358.2976h-60.35456V419.84h60.35456v-61.56288z" fill="#57A4FF" p-id="2835"></path><path d="M843.34592 296.91904h-60.35456v61.37856h60.35456v-61.37856z" fill="#57A4FF" p-id="2836"></path><path d="M843.34592 235.35616h-60.35456v61.56288h60.35456v-61.56288zM782.99136 604.16h-60.14976v61.35808h60.14976v-61.37856z" fill="#000000" p-id="2837"></path><path d="M782.99136 542.57664h-60.14976V604.16h60.14976v-61.56288z" fill="#000000" p-id="2838"></path><path d="M782.99136 481.21856h-60.14976v61.35808h60.14976v-61.35808zM782.99136 419.86048h-60.14976v61.35808h60.14976v-61.35808z" fill="#57A4FF" p-id="2839"></path><path d="M782.99136 358.2976h-60.14976V419.84h60.14976v-61.56288z" fill="#000000" p-id="2840"></path><path d="M782.99136 296.91904h-60.14976v61.37856h60.14976v-61.37856zM722.82112 727.08096h-60.14976v61.35808h60.17024v-61.35808zM722.82112 665.51808h-60.14976v61.56288h60.17024v-61.56288z" fill="#000000" p-id="2841"></path><path d="M722.82112 604.16h-60.14976v61.35808h60.17024v-61.37856z" fill="#57A4FF" p-id="2842"></path><path d="M722.82112 542.57664h-60.14976V604.16h60.17024v-61.56288zM722.82112 481.21856h-60.14976v61.35808h60.17024v-61.35808zM722.82112 419.86048h-60.14976v61.35808h60.17024v-61.35808zM722.82112 358.2976h-60.14976V419.84h60.17024v-61.56288z" fill="#57A4FF" p-id="2843"></path><path d="M722.82112 296.91904h-60.14976v61.37856h60.17024v-61.37856z" fill="#000000" p-id="2844"></path><path d="M722.82112 235.35616h-60.14976v61.56288h60.17024v-61.56288zM662.67136 788.43904H602.3168v61.35808h60.35456v-61.35808z" fill="#000000" p-id="2845"></path><path d="M662.67136 727.08096H602.3168v61.35808h60.35456v-61.35808zM662.67136 665.51808H602.3168v61.56288h60.35456v-61.56288zM662.67136 604.16H602.3168v61.35808h60.35456v-61.37856z" fill="#57A4FF" p-id="2846"></path><path d="M662.67136 542.57664H602.3168V604.16h60.35456v-61.56288zM662.67136 481.21856H602.3168v61.35808h60.35456v-61.35808zM662.67136 419.86048H602.3168v61.35808h60.35456v-61.35808zM662.67136 358.2976H602.3168V419.84h60.35456v-61.56288z" fill="#57A4FF" p-id="2847"></path><path d="M662.67136 296.91904H602.3168v61.37856h60.35456v-61.37856z" fill="#57A4FF" p-id="2848"></path><path d="M662.67136 235.35616H602.3168v61.56288h60.35456v-61.56288z" fill="#57A4FF" p-id="2849"></path><path d="M662.67136 174.01856H602.3168v61.35808h60.35456V174.01856zM602.3168 849.79712h-60.12928V911.36h60.14976v-61.56288z" fill="#000000" p-id="2850"></path><path d="M602.3168 788.43904h-60.12928v61.35808h60.14976v-61.35808z" fill="#57A4FF" p-id="2851"></path><path d="M602.3168 727.08096h-60.12928v61.35808h60.14976v-61.35808zM602.3168 665.51808h-60.12928v61.56288h60.14976v-61.56288zM602.3168 604.16h-60.12928v61.35808h60.14976v-61.37856z" fill="#57A4FF" p-id="2852"></path><path d="M602.3168 542.57664h-60.12928V604.16h60.14976v-61.56288zM602.3168 481.21856h-60.12928v61.35808h60.14976v-61.35808zM602.3168 419.86048h-60.12928v61.35808h60.14976v-61.35808zM602.3168 358.2976h-60.12928V419.84h60.14976v-61.56288z" fill="#57A4FF" p-id="2853"></path><path d="M602.3168 296.91904h-60.12928v61.37856h60.14976v-61.37856z" fill="#57A4FF" p-id="2854"></path><path d="M602.3168 235.35616h-60.12928v61.56288h60.14976v-61.56288z" fill="#57A4FF" p-id="2855"></path><path d="M602.3168 174.01856h-60.12928v61.35808h60.14976V174.01856zM542.18752 849.79712h-60.35456V911.36h60.35456v-61.56288z" fill="#000000" p-id="2856"></path><path d="M542.18752 788.43904h-60.35456v61.35808h60.35456v-61.35808z" fill="#57A4FF" p-id="2857"></path><path d="M542.18752 727.08096h-60.35456v61.35808h60.35456v-61.35808zM542.18752 665.51808h-60.35456v61.56288h60.35456v-61.56288zM542.18752 604.16h-60.35456v61.35808h60.35456v-61.37856z" fill="#57A4FF" p-id="2858"></path><path d="M542.18752 542.57664h-60.35456V604.16h60.35456v-61.56288zM542.18752 481.21856h-60.35456v61.35808h60.35456v-61.35808zM542.18752 419.86048h-60.35456v61.35808h60.35456v-61.35808zM542.18752 358.2976h-60.35456V419.84h60.35456v-61.56288z" fill="#57A4FF" p-id="2859"></path><path d="M542.18752 296.91904h-60.35456v61.37856h60.35456v-61.37856z" fill="#57A4FF" p-id="2860"></path><path d="M542.18752 235.35616h-60.35456v61.56288h60.35456v-61.56288z" fill="#57A4FF" p-id="2861"></path><path d="M542.18752 174.01856h-60.35456v61.35808h60.35456V174.01856z" fill="#57A4FF" p-id="2862"></path><path d="M542.18752 112.64h-60.35456v61.35808h60.35456V112.64zM481.81248 849.79712H421.6832V911.36h60.17024v-61.56288z" fill="#000000" p-id="2863"></path><path d="M481.81248 788.43904H421.6832v61.35808h60.17024v-61.35808z" fill="#57A4FF" p-id="2864"></path><path d="M481.81248 727.08096H421.6832v61.35808h60.17024v-61.35808zM481.81248 665.51808H421.6832v61.56288h60.17024v-61.56288zM481.81248 604.16H421.6832v61.35808h60.17024v-61.37856z" fill="#57A4FF" p-id="2865"></path><path d="M481.81248 542.57664H421.6832V604.16h60.17024v-61.56288zM481.81248 481.21856H421.6832v61.35808h60.17024v-61.35808zM481.81248 419.86048H421.6832v61.35808h60.17024v-61.35808zM481.81248 358.2976H421.6832V419.84h60.17024v-61.56288z" fill="#57A4FF" p-id="2866"></path><path d="M481.81248 296.91904H421.6832v61.37856h60.17024v-61.37856z" fill="#57A4FF" p-id="2867"></path><path d="M481.81248 235.35616H421.6832v61.56288h60.17024v-61.56288z" fill="#57A4FF" p-id="2868"></path><path d="M481.81248 174.01856H421.6832v61.35808h60.17024V174.01856z" fill="#57A4FF" p-id="2869"></path><path d="M481.81248 112.64H421.6832v61.35808h60.17024V112.64zM421.6832 849.79712h-60.37504V911.36h60.35456v-61.56288z" fill="#000000" p-id="2870"></path><path d="M421.6832 788.43904h-60.37504v61.35808h60.35456v-61.35808z" fill="#57A4FF" p-id="2871"></path><path d="M421.6832 727.08096h-60.37504v61.35808h60.35456v-61.35808zM421.6832 665.51808h-60.37504v61.56288h60.35456v-61.56288zM421.6832 604.16h-60.37504v61.35808h60.35456v-61.37856z" fill="#57A4FF" p-id="2872"></path><path d="M421.6832 542.57664h-60.37504V604.16h60.35456v-61.56288zM421.6832 481.21856h-60.37504v61.35808h60.35456v-61.35808zM421.6832 419.86048h-60.37504v61.35808h60.35456v-61.35808zM421.6832 358.2976h-60.37504V419.84h60.35456v-61.56288z" fill="#57A4FF" p-id="2873"></path><path d="M421.6832 296.91904h-60.37504v61.37856h60.35456v-61.37856z" fill="#57A4FF" p-id="2874"></path><path d="M421.6832 235.35616h-60.37504v61.56288h60.35456v-61.56288z" fill="#57A4FF" p-id="2875"></path><path d="M421.6832 174.01856h-60.37504v61.35808h60.35456V174.01856z" fill="#57A4FF" p-id="2876"></path><path d="M421.6832 112.64h-60.37504v61.35808h60.35456V112.64zM361.30816 849.79712h-60.14976V911.36h60.14976v-61.56288z" fill="#000000" p-id="2877"></path><path d="M361.30816 788.43904h-60.14976v61.35808h60.14976v-61.35808z" fill="#57A4FF" p-id="2878"></path><path d="M361.30816 727.08096h-60.14976v61.35808h60.14976v-61.35808zM361.30816 665.51808h-60.14976v61.56288h60.14976v-61.56288zM361.30816 604.16h-60.14976v61.35808h60.14976v-61.37856z" fill="#57A4FF" p-id="2879"></path><path d="M361.30816 542.57664h-60.14976V604.16h60.14976v-61.56288zM361.30816 481.21856h-60.14976v61.35808h60.14976v-61.35808zM361.30816 419.86048h-60.14976v61.35808h60.14976v-61.35808zM361.30816 358.2976h-60.14976V419.84h60.14976v-61.56288z" fill="#57A4FF" p-id="2880"></path><path d="M361.30816 296.91904h-60.14976v61.37856h60.14976v-61.37856z" fill="#57A4FF" p-id="2881"></path><path d="M361.30816 235.35616h-60.14976v61.56288h60.14976v-61.56288z" fill="#57A4FF" p-id="2882"></path><path d="M361.30816 174.01856h-60.14976v61.35808h60.14976V174.01856z" fill="#57A4FF" p-id="2883"></path><path d="M361.30816 112.64h-60.14976v61.35808h60.14976V112.64zM301.1584 849.79712h-60.14976V911.36h60.14976v-61.56288z" fill="#000000" p-id="2884"></path><path d="M301.1584 788.43904h-60.14976v61.35808h60.14976v-61.35808z" fill="#57A4FF" p-id="2885"></path><path d="M301.1584 727.08096h-60.14976v61.35808h60.14976v-61.35808zM301.1584 665.51808h-60.14976v61.56288h60.14976v-61.56288zM301.1584 604.16h-60.14976v61.35808h60.14976v-61.37856z" fill="#57A4FF" p-id="2886"></path><path d="M301.1584 542.57664h-60.14976V604.16h60.14976v-61.56288z" fill="#57A4FF" p-id="2887"></path><path d="M301.1584 481.21856h-60.14976v61.35808h60.14976v-61.35808zM301.1584 419.86048h-60.14976v61.35808h60.14976v-61.35808z" fill="#000000" p-id="2888"></path><path d="M301.1584 358.2976h-60.14976V419.84h60.14976v-61.56288z" fill="#57A4FF" p-id="2889"></path><path d="M301.1584 296.91904h-60.14976v61.37856h60.14976v-61.37856z" fill="#57A4FF" p-id="2890"></path><path d="M301.1584 235.35616h-60.14976v61.56288h60.14976v-61.56288z" fill="#57A4FF" p-id="2891"></path><path d="M301.1584 174.01856h-60.14976v61.35808h60.14976V174.01856z" fill="#57A4FF" p-id="2892"></path><path d="M301.1584 112.64h-60.14976v61.35808h60.14976V112.64zM241.00864 788.43904H180.65408v61.35808h60.35456v-61.35808z" fill="#000000" p-id="2893"></path><path d="M241.00864 727.08096H180.65408v61.35808h60.35456v-61.35808zM241.00864 665.51808H180.65408v61.56288h60.35456v-61.56288zM241.00864 604.16H180.65408v61.35808h60.35456v-61.37856z" fill="#57A4FF" p-id="2894"></path><path d="M241.00864 542.57664H180.65408V604.16h60.35456v-61.56288zM241.00864 481.21856H180.65408v61.35808h60.35456v-61.35808zM241.00864 419.86048H180.65408v61.35808h60.35456v-61.35808zM241.00864 358.2976H180.65408V419.84h60.35456v-61.56288z" fill="#57A4FF" p-id="2895"></path><path d="M241.00864 296.91904H180.65408v61.37856h60.35456v-61.37856z" fill="#57A4FF" p-id="2896"></path><path d="M241.00864 235.35616H180.65408v61.56288h60.35456v-61.56288z" fill="#57A4FF" p-id="2897"></path><path d="M241.00864 174.01856H180.65408v61.35808h60.35456V174.01856zM180.65408 788.43904H120.50432v61.35808h60.14976v-61.35808z" fill="#000000" p-id="2898"></path><path d="M180.65408 727.08096H120.50432v61.35808h60.14976v-61.35808zM180.65408 665.51808H120.50432v61.56288h60.14976v-61.56288zM180.65408 604.16H120.50432v61.35808h60.14976v-61.37856z" fill="#57A4FF" p-id="2899"></path><path d="M180.65408 542.57664H120.50432V604.16h60.14976v-61.56288zM180.65408 481.21856H120.50432v61.35808h60.14976v-61.35808zM180.65408 419.86048H120.50432v61.35808h60.14976v-61.35808zM180.65408 358.2976H120.50432V419.84h60.14976v-61.56288z" fill="#57A4FF" p-id="2900"></path><path d="M180.65408 296.91904H120.50432v61.37856h60.14976v-61.37856z" fill="#57A4FF" p-id="2901"></path><path d="M180.65408 235.35616H120.50432v61.56288h60.14976v-61.56288z" fill="#57A4FF" p-id="2902"></path><path d="M180.65408 174.01856H120.50432v61.35808h60.14976V174.01856zM120.50432 727.08096H60.14976v61.35808h60.35456v-61.35808zM120.50432 665.51808H60.14976v61.56288h60.35456v-61.56288z" fill="#000000" p-id="2903"></path><path d="M120.50432 604.16H60.14976v61.35808h60.35456v-61.37856z" fill="#57A4FF" p-id="2904"></path><path d="M120.50432 542.57664H60.14976V604.16h60.35456v-61.56288zM120.50432 481.21856H60.14976v61.35808h60.35456v-61.35808zM120.50432 419.86048H60.14976v61.35808h60.35456v-61.35808zM120.50432 358.2976H60.14976V419.84h60.35456v-61.56288z" fill="#57A4FF" p-id="2905"></path><path d="M120.50432 296.91904H60.14976v61.37856h60.35456v-61.37856z" fill="#57A4FF" p-id="2906"></path><path d="M120.50432 235.35616H60.14976v61.56288h60.35456v-61.56288zM60.14976 604.16H0v61.35808h60.14976v-61.37856z" fill="#000000" p-id="2907"></path><path d="M60.14976 542.57664H0V604.16h60.14976v-61.56288zM60.14976 481.21856H0v61.35808h60.14976v-61.35808zM60.14976 419.86048H0v61.35808h60.14976v-61.35808zM60.14976 358.2976H0V419.84h60.14976v-61.56288z" fill="#000000" p-id="2908"></path><path d="M60.14976 296.91904H0v61.37856h60.14976v-61.37856z" fill="#000000" p-id="2909"></path></svg>