<svg class="icon" viewBox="0 0 400 400" xmlns="http://www.w3.org/2000/svg" width="400px" height="400px"><path d="M1024 604.16h-60.15v61.358H1024V604.14z"/><path d="M1024 542.577h-60.15v61.583H1024v-61.563zm0-184.28h-60.15v61.543H1024v-61.563z"/><path d="M1024 296.919h-60.15v61.379H1024v-61.379zm-60.15 368.6h-60.354v61.562h60.354v-61.563z"/><path d="M963.85 604.16h-60.354v61.358h60.354V604.14z" fill="#57A4FF"/><path d="M963.85 542.577h-60.354v61.583h60.354v-61.563z" fill="#57A4FF"/><path d="M963.85 481.219h-60.354v61.358h60.354v-61.358zm0-61.359h-60.354v61.359h60.354V419.86z"/><path d="M963.85 358.298h-60.354v61.542h60.354v-61.563z" fill="#57A4FF"/><path d="M963.85 296.919h-60.354v61.379h60.354v-61.379z" fill="#57A4FF"/><path d="M963.85 235.356h-60.354v61.563h60.354v-61.563zm-60.354 430.162h-60.17v61.563h60.17v-61.563z"/><path d="M903.496 604.16h-60.17v61.358h60.17V604.14z" fill="#57A4FF"/><path d="M903.496 542.577h-60.17v61.583h60.17v-61.563zm0-61.358h-60.17v61.358h60.17v-61.358zm0-61.359h-60.17v61.359h60.17V419.86zm0-61.562h-60.17v61.542h60.17v-61.563z" fill="#57A4FF"/><path d="M903.496 296.919h-60.17v61.379h60.17v-61.379z" fill="#57A4FF"/><path d="M903.496 235.356h-60.17v61.563h60.17v-61.563zm-60.15 430.162H782.99v61.563h60.355v-61.563z"/><path d="M843.346 604.16H782.99v61.358h60.355V604.14z" fill="#57A4FF"/><path d="M843.346 542.577H782.99v61.583h60.355v-61.563zm0-61.358H782.99v61.358h60.355v-61.358zm0-61.359H782.99v61.359h60.355V419.86zm0-61.562H782.99v61.542h60.355v-61.563z" fill="#57A4FF"/><path d="M843.346 296.919H782.99v61.379h60.355v-61.379z" fill="#57A4FF"/><path d="M843.346 235.356H782.99v61.563h60.355v-61.563zM782.99 604.16h-60.15v61.358h60.15V604.14z"/><path d="M782.991 542.577h-60.15v61.583h60.15v-61.563z"/><path d="M782.991 481.219h-60.15v61.358h60.15v-61.358zm0-61.359h-60.15v61.359h60.15V419.86z" fill="#57A4FF"/><path d="M782.991 358.298h-60.15v61.542h60.15v-61.563z"/><path d="M782.991 296.919h-60.15v61.379h60.15v-61.379zm-60.17 430.162h-60.15v61.358h60.17v-61.358zm0-61.563h-60.15v61.563h60.17v-61.563z"/><path d="M722.821 604.16h-60.15v61.358h60.17V604.14z" fill="#57A4FF"/><path d="M722.821 542.577h-60.15v61.583h60.17v-61.563zm0-61.358h-60.15v61.358h60.17v-61.358zm0-61.359h-60.15v61.359h60.17V419.86zm0-61.562h-60.15v61.542h60.17v-61.563z" fill="#57A4FF"/><path d="M722.821 296.919h-60.15v61.379h60.17v-61.379zM722.821 235.356h-60.15v61.563h60.17v-61.563zm-60.15 553.083h-60.354v61.358h60.354V788.44z"/><path d="M662.671 727.081h-60.354v61.358h60.354v-61.358zm0-61.563h-60.354v61.563h60.354v-61.563zm0-61.358h-60.354v61.358h60.354V604.14z" fill="#57A4FF"/><path d="M662.671 542.577h-60.354v61.583h60.354v-61.563zm0-61.358h-60.354v61.358h60.354v-61.358zm0-61.359h-60.354v61.359h60.354V419.86zm0-61.562h-60.354v61.542h60.354v-61.563z" fill="#57A4FF"/><path d="M662.671 296.919h-60.354v61.379h60.354v-61.379zM662.671 235.356h-60.354v61.563h60.354v-61.563z" fill="#57A4FF"/><path d="M662.671 174.019h-60.354v61.358h60.354v-61.358zm-60.354 675.778h-60.13v61.563h60.15v-61.563z"/><path d="M602.317 788.439h-60.13v61.358h60.15V788.44zM602.317 727.081h-60.13v61.358h60.15v-61.358zm0-61.563h-60.13v61.563h60.15v-61.563zm0-61.358h-60.13v61.358h60.15V604.14z" fill="#57A4FF"/><path d="M602.317 542.577h-60.13v61.583h60.15v-61.563zm0-61.358h-60.13v61.358h60.15v-61.358zm0-61.359h-60.13v61.359h60.15V419.86zm0-61.562h-60.13v61.542h60.15v-61.563z" fill="#57A4FF"/><path d="M602.317 296.919h-60.13v61.379h60.15v-61.379zM602.317 235.356h-60.13v61.563h60.15v-61.563z" fill="#57A4FF"/><path d="M602.317 174.019h-60.13v61.358h60.15v-61.358zm-60.13 675.778h-60.354v61.563h60.355v-61.563z"/><path d="M542.188 788.439h-60.355v61.358h60.355V788.44zM542.188 727.081h-60.355v61.358h60.355v-61.358zm0-61.563h-60.355v61.563h60.355v-61.563zm0-61.358h-60.355v61.358h60.355V604.14z" fill="#57A4FF"/><path d="M542.188 542.577h-60.355v61.583h60.355v-61.563zm0-61.358h-60.355v61.358h60.355v-61.358zm0-61.359h-60.355v61.359h60.355V419.86zm0-61.562h-60.355v61.542h60.355v-61.563z" fill="#57A4FF"/><path d="M542.188 296.919h-60.355v61.379h60.355v-61.379zM542.188 235.356h-60.355v61.563h60.355v-61.563z" fill="#57A4FF"/><path d="M542.188 174.019h-60.355v61.358h60.355v-61.358z" fill="#57A4FF"/><path d="M542.188 112.64h-60.355v61.358h60.355V112.64zm-60.376 737.157h-60.129v61.563h60.17v-61.563z"/><path d="M481.812 788.439h-60.129v61.358h60.17V788.44zM481.812 727.081h-60.129v61.358h60.17v-61.358zm0-61.563h-60.129v61.563h60.17v-61.563zm0-61.358h-60.129v61.358h60.17V604.14z" fill="#57A4FF"/><path d="M481.812 542.577h-60.129v61.583h60.17v-61.563zm0-61.358h-60.129v61.358h60.17v-61.358zm0-61.359h-60.129v61.359h60.17V419.86zm0-61.562h-60.129v61.542h60.17v-61.563z" fill="#57A4FF"/><path d="M481.812 296.919h-60.129v61.379h60.17v-61.379zM481.812 235.356h-60.129v61.563h60.17v-61.563z" fill="#57A4FF"/><path d="M481.812 174.019h-60.129v61.358h60.17v-61.358z" fill="#57A4FF"/><path d="M481.812 112.64h-60.129v61.358h60.17V112.64zm-60.129 737.157h-60.375v61.563h60.355v-61.563z"/><path d="M421.683 788.439h-60.375v61.358h60.355V788.44zM421.683 727.081h-60.375v61.358h60.355v-61.358zm0-61.563h-60.375v61.563h60.355v-61.563zm0-61.358h-60.375v61.358h60.355V604.14z" fill="#57A4FF"/><path d="M421.683 542.577h-60.375v61.583h60.355v-61.563zm0-61.358h-60.375v61.358h60.355v-61.358zm0-61.359h-60.375v61.359h60.355V419.86zm0-61.562h-60.375v61.542h60.355v-61.563z" fill="#57A4FF"/><path d="M421.683 296.919h-60.375v61.379h60.355v-61.379zM421.683 235.356h-60.375v61.563h60.355v-61.563z" fill="#57A4FF"/><path d="M421.683 174.019h-60.375v61.358h60.355v-61.358z" fill="#57A4FF"/><path d="M421.683 112.64h-60.375v61.358h60.355V112.64zm-60.375 737.157h-60.15v61.563h60.15v-61.563z"/><path d="M361.308 788.439h-60.15v61.358h60.15V788.44zM361.308 727.081h-60.15v61.358h60.15v-61.358zm0-61.563h-60.15v61.563h60.15v-61.563zm0-61.358h-60.15v61.358h60.15V604.14z" fill="#57A4FF"/><path d="M361.308 542.577h-60.15v61.583h60.15v-61.563zm0-61.358h-60.15v61.358h60.15v-61.358zm0-61.359h-60.15v61.359h60.15V419.86zm0-61.562h-60.15v61.542h60.15v-61.563z" fill="#57A4FF"/><path d="M361.308 296.919h-60.15v61.379h60.15v-61.379zM361.308 235.356h-60.15v61.563h60.15v-61.563z" fill="#57A4FF"/><path d="M361.308 174.019h-60.15v61.358h60.15v-61.358z" fill="#57A4FF"/><path d="M361.308 112.64h-60.15v61.358h60.15V112.64zm-60.15 737.157h-60.15v61.563h60.15v-61.563z"/><path d="M301.158 788.439h-60.15v61.358h60.15V788.44zM301.158 727.081h-60.15v61.358h60.15v-61.358zm0-61.563h-60.15v61.563h60.15v-61.563zm0-61.358h-60.15v61.358h60.15V604.14z" fill="#57A4FF"/><path d="M301.158 542.577h-60.15v61.583h60.15v-61.563z" fill="#57A4FF"/><path d="M301.158 481.219h-60.15v61.358h60.15v-61.358zm0-61.359h-60.15v61.359h60.15V419.86z"/><path d="M301.158 358.298h-60.15v61.542h60.15v-61.563z" fill="#57A4FF"/><path d="M301.158 296.919h-60.15v61.379h60.15v-61.379zM301.158 235.356h-60.15v61.563h60.15v-61.563z" fill="#57A4FF"/><path d="M301.158 174.019h-60.15v61.358h60.15v-61.358z" fill="#57A4FF"/><path d="M301.158 112.64h-60.15v61.358h60.15V112.64zm-60.15 675.799h-60.354v61.358h60.355V788.44z"/><path d="M241.009 727.081h-60.355v61.358h60.355v-61.358zm0-61.563h-60.355v61.563h60.355v-61.563zm0-61.358h-60.355v61.358h60.355V604.14z" fill="#57A4FF"/><path d="M241.009 542.577h-60.355v61.583h60.355v-61.563zm0-61.358h-60.355v61.358h60.355v-61.358zm0-61.359h-60.355v61.359h60.355V419.86zm0-61.562h-60.355v61.542h60.355v-61.563z" fill="#57A4FF"/><path d="M241.009 296.919h-60.355v61.379h60.355v-61.379zM241.009 235.356h-60.355v61.563h60.355v-61.563z" fill="#57A4FF"/><path d="M241.009 174.019h-60.355v61.358h60.355v-61.358zm-60.355 614.42h-60.15v61.358h60.15V788.44z"/><path d="M180.654 727.081h-60.15v61.358h60.15v-61.358zm0-61.563h-60.15v61.563h60.15v-61.563zm0-61.358h-60.15v61.358h60.15V604.14z" fill="#57A4FF"/><path d="M180.654 542.577h-60.15v61.583h60.15v-61.563zm0-61.358h-60.15v61.358h60.15v-61.358zm0-61.359h-60.15v61.359h60.15V419.86zm0-61.562h-60.15v61.542h60.15v-61.563z" fill="#57A4FF"/><path d="M180.654 296.919h-60.15v61.379h60.15v-61.379zM180.654 235.356h-60.15v61.563h60.15v-61.563z" fill="#57A4FF"/><path d="M180.654 174.019h-60.15v61.358h60.15v-61.358zm-60.15 553.062H60.15v61.358h60.354v-61.358zm0-61.563H60.15v61.563h60.354v-61.563z"/><path d="M120.504 604.16H60.15v61.358h60.354V604.14z" fill="#57A4FF"/><path d="M120.504 542.577H60.15v61.583h60.354v-61.563zm0-61.358H60.15v61.358h60.354v-61.358zm0-61.359H60.15v61.359h60.354V419.86zm0-61.562H60.15v61.542h60.354v-61.563z" fill="#57A4FF"/><path d="M120.504 296.919H60.15v61.379h60.354v-61.379z" fill="#57A4FF"/><path d="M120.504 235.356H60.15v61.563h60.354v-61.563zM60.15 604.16H0v61.358h60.15V604.14z"/><path d="M60.15 542.577H0v61.583h60.15v-61.563zm0-61.358H0v61.358h60.15v-61.358zm0-61.359H0v61.359h60.15V419.86zm0-61.562H0v61.542h60.15v-61.563z"/><path d="M60.15 296.919H0v61.379h60.15v-61.379z"/></svg>